# xmcd
#
# Track frame offsets: 
#        150
#        16815
#        38257
#        54915
#        71192
#        91157
#        107822
#        125820
#        144195
#        164080
#        180295
#        193125
#        205252
#        218665
#        237847
#        260722
#        277850
#        295487
#        310377
#        323477
#
# Disc length: 4588 seconds
#
# Revision: 9
# Processed by: cddbd v1.5.2PL0 Copyright (c) Steve Scherf et al.
# Submitted via: ExactAudioCopy v0.99pb5
#
DISCID=2011ea14
DTITLE=Various Artist - The Love Album II Disc One
DYEAR=1995
DGENRE=Pop
TTITLE0=Wet Wet Wet - Goodnight Girl
TTITLE1=Phil Collins - One More Night
TTITLE2=Cher - I Found Someone
TTITLE3=Tina Turner - Let's Stay Together
TTITLE4=Lisa Stansfield - All Around The World
TTITLE5=Sina Carroll - Ain't No Man
TTITLE6=George Michael and Aretha Franklin - I Knew You Were Waiting (Fo
TTITLE6=r Me)
TTITLE7=Marvin Gaye - Sexual Healing
TTITLE8=Diana Ross and Lionel Richie - Endless Love
TTITLE9=The Righteous Brothers - Unchained Melody
TTITLE10=Percy Sledge - When A Man Loves A Woman
TTITLE11=The Temptations - My Girl
TTITLE12=The Beautiful South - A Little Time
TTITLE13=Everything  But The Girl - I Don't Want To Talk About It
TTITLE14=Richard Marx - Hazard
TTITLE15=Maria McKee - Show Me Heaven
TTITLE16=The Bangles - Eternal Flame
TTITLE17=Nilsson - Without You
TTITLE18=Dionne Warwick - Walk On By
TTITLE19=Oleta Adams - Get Here
EXTD=YEAR: 1995
EXTT0=
EXTT1=Phil Collins
EXTT2=Cher
EXTT3=Tina Turner
EXTT4=Lisa Stanfield
EXTT5=Dina Carroll
EXTT6=George Michael and Aretha Franklin
EXTT7=Marvin Gaye
EXTT8=Diana Ross and Lionel Ritchie
EXTT9=The Righteous Brothers
EXTT10=Percy Sledge
EXTT11=The Temptations
EXTT12=The Beautiful South
EXTT13=Everything But The Girl
EXTT14=Richard Marx
EXTT15=Maria McKee
EXTT16=The Bangles
EXTT17=Nilsson
EXTT18=Dionne Warwick
EXTT19=Oleta Adams
PLAYORDER=
